<svg width="54" height="18" viewBox="0 0 54 18" fill="none" xmlns="http://www.w3.org/2000/svg">
<path d="M8.99975 13.1393L12.1122 15.0218C12.6822 15.3668 13.3797 14.8568 13.2297 14.2118L12.4047 10.6718L15.1572 8.28684C15.6597 7.85184 15.3897 7.02684 14.7297 6.97434L11.1072 6.66684L9.68975 3.32184C9.43475 2.71434 8.56475 2.71434 8.30975 3.32184L6.89225 6.65934L3.26975 6.96684C2.60975 7.01934 2.33975 7.84434 2.84225 8.27934L5.59475 10.6643L4.76975 14.2043C4.61975 14.8493 5.31725 15.3593 5.88725 15.0143L8.99975 13.1393Z" fill="#FFC045"/>
<path d="M26.9997 13.1393L30.1122 15.0218C30.6822 15.3668 31.3797 14.8568 31.2297 14.2118L30.4047 10.6718L33.1572 8.28684C33.6597 7.85184 33.3897 7.02684 32.7297 6.97434L29.1072 6.66684L27.6897 3.32184C27.4347 2.71434 26.5647 2.71434 26.3097 3.32184L24.8922 6.65934L21.2697 6.96684C20.6097 7.01934 20.3397 7.84434 20.8422 8.27934L23.5947 10.6643L22.7697 14.2043C22.6197 14.8493 23.3172 15.3593 23.8872 15.0143L26.9997 13.1393Z" fill="#FFC045"/>
<path d="M44.9997 13.1393L48.1122 15.0218C48.6822 15.3668 49.3797 14.8568 49.2297 14.2118L48.4047 10.6718L51.1572 8.28684C51.6597 7.85184 51.3897 7.02684 50.7297 6.97434L47.1072 6.66684L45.6897 3.32184C45.4347 2.71434 44.5647 2.71434 44.3097 3.32184L42.8922 6.65934L39.2697 6.96684C38.6097 7.01934 38.3397 7.84434 38.8422 8.27934L41.5947 10.6643L40.7697 14.2043C40.6197 14.8493 41.3172 15.3593 41.8872 15.0143L44.9997 13.1393Z" fill="#FFC045"/>
</svg>
