<svg width="40" height="41" viewBox="0 0 40 41" fill="none" xmlns="http://www.w3.org/2000/svg">
<path d="M34.7477 3.9038C33.7515 2.98608 29.7258 0.0683674 20.7589 0.0287278C20.7589 0.0287278 10.1847 -0.607909 5.02991 4.11281C2.16046 6.97828 1.15104 11.1711 1.04456 16.3693C0.938084 21.5675 0.800325 31.3092 10.2057 33.9506H10.2148L10.2088 37.9813C10.2088 37.9813 10.1486 39.6131 11.2248 39.9458C12.5266 40.3494 13.2906 39.1092 14.5334 37.7723C15.2155 37.0383 16.1576 35.9603 16.8674 35.1362C23.2999 35.6768 28.2472 34.4413 28.809 34.2588C30.1078 33.8383 37.4571 32.8984 38.6524 23.1573C39.8862 13.117 38.0556 6.76627 34.7477 3.9038Z" fill="white"/>
<path d="M32.656 5.93203C31.8138 5.16807 28.1786 2.88759 20.5935 2.85456C20.5935 2.85456 11.6116 2.26537 7.25148 6.20831C4.82478 8.6005 4.00726 12.1579 3.91762 16.499C3.82799 20.8401 3.36359 29.1332 11.3168 31.3392C11.3168 31.3392 11.2856 37.496 11.2819 38.0371C11.2819 38.4155 11.3421 38.6744 11.5587 38.7278C11.7145 38.7657 11.9479 38.6852 12.1464 38.4876C13.4181 37.2125 17.4895 32.3086 17.4895 32.3086C22.9522 32.6648 27.2985 31.5879 27.7659 31.4353C28.868 31.0816 34.8289 30.5705 35.8377 22.4347C36.8802 14.0486 35.4545 8.32423 32.656 5.93203Z" fill="#7360F2"/>
<path d="M24.45 16.1423C24.3514 14.1567 23.3412 13.1138 21.4194 13.0137" stroke="white" stroke-linecap="round" stroke-linejoin="round"/>
<path d="M27.0519 17.0131C27.092 15.1632 26.5432 13.6177 25.4054 12.3765C24.2624 11.1308 22.6803 10.4449 20.6501 10.2966" stroke="white" stroke-linecap="round" stroke-linejoin="round"/>
<path d="M29.7156 18.0533C29.6911 14.8433 28.7304 12.3152 26.8335 10.469C24.9366 8.62272 22.5775 7.68979 19.7561 7.67017" stroke="white" stroke-linecap="round" stroke-linejoin="round"/>
<path d="M21.5199 22.9236C21.5199 22.9236 22.2328 22.9837 22.6166 22.5116L23.3649 21.5717C23.7258 21.1056 24.5969 20.8083 25.4499 21.2828C26.0891 21.6468 26.7097 22.0424 27.3093 22.4684C27.8754 22.884 29.0346 23.8497 29.0382 23.8497C29.5905 24.3152 29.718 24.9987 29.342 25.7194C29.342 25.7236 29.339 25.7308 29.339 25.7344C28.9249 26.4511 28.3992 27.0975 27.7816 27.6491C27.7744 27.6527 27.7744 27.6563 27.7677 27.66C27.2311 28.1076 26.704 28.3621 26.1862 28.4233C26.11 28.4366 26.0325 28.4415 25.9552 28.4377C25.7269 28.4399 25.4998 28.405 25.2827 28.3344L25.2658 28.3098C24.4682 28.0852 23.1363 27.523 20.9184 26.3014C19.6349 25.6028 18.4129 24.7969 17.2657 23.8924C16.6906 23.4393 16.1421 22.9536 15.6228 22.4377L15.5675 22.3825L15.5121 22.3272L15.4568 22.272C15.4381 22.2539 15.4201 22.2353 15.4014 22.2167C14.8847 21.6982 14.3983 21.1506 13.9445 20.5765C13.0386 19.4312 12.2315 18.2114 11.5316 16.9302C10.308 14.7152 9.74495 13.3867 9.51996 12.5891L9.4953 12.5723C9.42478 12.3555 9.39003 12.1287 9.39243 11.9008C9.38822 11.8236 9.39286 11.7463 9.40627 11.6702C9.47084 11.154 9.7261 10.6273 10.1721 10.09C10.1757 10.0834 10.1793 10.0834 10.1829 10.0762C10.7353 9.45954 11.3827 8.93483 12.1007 8.52181C12.1043 8.52181 12.1115 8.51821 12.1157 8.51821C12.8376 8.14283 13.5222 8.27016 13.9878 8.81851C13.9914 8.82211 14.9569 9.97947 15.3714 10.5446C15.798 11.1439 16.1943 11.7641 16.5588 12.4029C17.0341 13.2539 16.7363 14.1254 16.2695 14.4846L15.328 15.2317C14.8528 15.6149 14.9154 16.3266 14.9154 16.3266C14.9154 16.3266 16.3098 21.5957 21.5199 22.9236Z" fill="white"/>
</svg>
