<svg width="16" height="16" viewBox="0 0 16 16" fill="none" xmlns="http://www.w3.org/2000/svg">
<path d="M8.00001 4.66666C6.16001 4.66666 4.66668 6.16 4.66668 8C4.66668 9.84 6.16001 11.3333 8.00001 11.3333C9.84001 11.3333 11.3333 9.84 11.3333 8C11.3333 6.16 9.84001 4.66666 8.00001 4.66666ZM8.00001 1.33333C4.32001 1.33333 1.33334 4.31999 1.33334 8C1.33334 11.68 4.32001 14.6667 8.00001 14.6667C11.68 14.6667 14.6667 11.68 14.6667 8C14.6667 4.31999 11.68 1.33333 8.00001 1.33333ZM8.00001 13.3333C5.05334 13.3333 2.66668 10.9467 2.66668 8C2.66668 5.05333 5.05334 2.66666 8.00001 2.66666C10.9467 2.66666 13.3333 5.05333 13.3333 8C13.3333 10.9467 10.9467 13.3333 8.00001 13.3333Z" fill="#5F46F8"/>
</svg>
