<svg width="36" height="36" viewBox="0 0 36 36" fill="none" xmlns="http://www.w3.org/2000/svg">
<path d="M15.03 35.82C6.48 34.29 0 26.91 0 18C0 8.1 8.1 0 18 0C27.9 0 36 8.1 36 18C36 26.91 29.52 34.29 20.97 35.82L19.98 35.01H16.02L15.03 35.82Z" fill="url(#paint0_linear_3506_11287)"/>
<path d="M25.02 23.04L25.83 18H21.06V14.49C21.06 13.05 21.6 11.97 23.76 11.97H26.1V7.37996C24.84 7.19996 23.4 7.01996 22.14 7.01996C18 7.01996 15.12 9.53996 15.12 14.04V18H10.62V23.04H15.12V35.73C16.11 35.91 17.1 36 18.09 36C19.08 36 20.07 35.91 21.06 35.73V23.04H25.02Z" fill="white"/>
<defs>
<linearGradient id="paint0_linear_3506_11287" x1="18.0009" y1="34.748" x2="18.0009" y2="-0.006631" gradientUnits="userSpaceOnUse">
<stop stop-color="#0062E0"/>
<stop offset="1" stop-color="#19AFFF"/>
</linearGradient>
</defs>
</svg>
