<svg width="40" height="40" viewBox="0 0 40 40" fill="none" xmlns="http://www.w3.org/2000/svg">
<path d="M4.32049 24.5212C4.32049 26.0485 4.65572 27.2212 5.09389 27.9306C5.66838 28.8598 6.52525 29.2534 7.3988 29.2534C8.52553 29.2534 9.55627 28.9738 11.5426 26.2266C13.134 24.0246 15.009 20.9338 16.2707 18.9961L18.4073 15.7133C19.8915 13.4334 21.6094 10.899 23.5791 9.18111C25.1871 7.77897 26.9217 7 28.6674 7C31.5983 7 34.39 8.69843 36.5266 11.8839C38.8649 15.3725 40 19.7667 40 24.3014C40 26.9972 39.4686 28.978 38.5645 30.5429C37.6909 32.0563 35.9883 33.5684 33.1242 33.5684V29.2534C35.5766 29.2534 36.1886 27 36.1886 24.4211C36.1886 20.746 35.3318 16.6675 33.4441 13.7534C32.1046 11.6863 30.3686 10.4233 28.4588 10.4233C26.3931 10.4233 24.7308 11.9812 22.8627 14.7591C21.8695 16.2349 20.8499 18.0335 19.7051 20.063L18.4448 22.2956C15.9132 26.7844 15.2719 27.8068 14.0061 29.4941C11.7875 32.4486 9.89289 33.5684 7.3988 33.5684C4.44012 33.5684 2.5692 32.2872 1.41049 30.3565C0.464599 28.7833 0 26.719 0 24.3668L4.32049 24.5212Z" fill="#0081FB"/>
<path d="M3.40651 12.1885C5.38731 9.13521 8.24585 7 11.5245 7C13.4232 7 15.3108 7.56197 17.2819 9.17137C19.4379 10.931 21.7359 13.8285 24.6028 18.6038L25.6307 20.3176C28.1123 24.4517 29.5242 26.5785 30.3504 27.5814C31.4132 28.8695 32.1574 29.2534 33.1241 29.2534C35.5765 29.2534 36.1885 27 36.1885 24.4211L39.9999 24.3014C39.9999 26.9972 39.4685 28.978 38.5644 30.5429C37.6908 32.0563 35.9882 33.5684 33.1241 33.5684C31.3436 33.5684 29.7662 33.1817 28.0219 31.5361C26.681 30.2731 25.1133 28.0293 23.9073 26.0124L20.3198 20.0199C18.5199 17.0125 16.8687 14.7702 15.9131 13.7548C14.8852 12.6628 13.5637 11.3441 11.4549 11.3441C9.74814 11.3441 8.29871 12.5418 7.08574 14.3738L3.40651 12.1885Z" fill="url(#paint0_linear_3264_9370)"/>
<path d="M11.455 11.3441C9.74823 11.3441 8.29879 12.5418 7.08582 14.3738C5.37071 16.9624 4.32049 20.8183 4.32049 24.5212C4.32049 26.0485 4.65572 27.2212 5.09389 27.9306L1.41049 30.3565C0.464599 28.7833 0 26.719 0 24.3668C0 20.0894 1.17402 15.6312 3.40659 12.1885C5.3874 9.13521 8.24593 7 11.5246 7L11.455 11.3441Z" fill="url(#paint1_linear_3264_9370)"/>
<defs>
<linearGradient id="paint0_linear_3264_9370" x1="8.4851" y1="23.2749" x2="36.0272" y2="24.6659" gradientUnits="userSpaceOnUse">
<stop stop-color="#0064E1"/>
<stop offset="0.4" stop-color="#0064E1"/>
<stop offset="0.83" stop-color="#0073EE"/>
<stop offset="1" stop-color="#0082FB"/>
</linearGradient>
<linearGradient id="paint1_linear_3264_9370" x1="6.25956" y1="26.3351" x2="6.25956" y2="16.1807" gradientUnits="userSpaceOnUse">
<stop stop-color="#0082FB"/>
<stop offset="1" stop-color="#0064E0"/>
</linearGradient>
</defs>
</svg>
