<svg width="40" height="40" viewBox="0 0 40 40" fill="none" xmlns="http://www.w3.org/2000/svg">
<g clip-path="url(#clip0_2005_9517)">
<g filter="url(#filter0_f_2005_9517)">
<path d="M11.694 32.7008L12.2553 33.0327C14.6125 34.429 17.3153 35.1676 20.0716 35.1688H20.0774C28.5418 35.1688 35.4305 28.2948 35.434 19.8461C35.4355 15.7519 33.8397 11.9019 30.9403 9.00575C29.5182 7.57746 27.8264 6.44489 25.9628 5.67359C24.0992 4.90228 22.1008 4.50758 20.0834 4.51231C11.6124 4.51231 4.72347 11.3856 4.72046 19.8338C4.71628 22.7186 5.53022 25.5458 7.06816 27.9883L7.43354 28.5678L5.88188 34.2217L11.694 32.7008ZM1.44562 38.6018L4.06704 29.049C2.45034 26.2534 1.5998 23.0818 1.60081 19.8326C1.60508 9.66768 9.893 1.39813 20.0776 1.39813C25.0199 1.40064 29.6588 3.32028 33.1476 6.80489C36.6364 10.2895 38.5559 14.9213 38.5542 19.8473C38.5497 30.0115 30.2605 38.2825 20.0774 38.2825H20.0693C16.9773 38.2813 13.939 37.507 11.2402 36.0383L1.44562 38.6018Z" fill="#B3B3B3"/>
</g>
<path d="M1.25598 38.4124L3.87741 28.8596C2.25792 26.0572 1.40726 22.8782 1.41117 19.6431C1.41544 9.47823 9.70336 1.20868 19.888 1.20868C24.8302 1.21119 29.4692 3.13082 32.958 6.61544C36.4467 10.1001 38.3663 14.7319 38.3645 19.6579C38.36 29.822 30.0708 38.0931 19.8877 38.0931H19.8797C16.7877 38.0918 13.7494 37.3176 11.0506 35.8488L1.25598 38.4124Z" fill="white"/>
<path d="M19.8935 4.32286C11.4225 4.32286 4.53361 11.1961 4.53059 19.6444C4.52642 22.5292 5.34036 25.3563 6.8783 27.7989L7.24368 28.3786L5.69202 34.0325L11.5044 32.5114L12.0657 32.8432C14.4229 34.2395 17.1257 34.9779 19.882 34.9794H19.8878C28.3522 34.9794 35.2411 28.1054 35.2444 19.6566C35.2508 17.6429 34.8569 15.6479 34.0856 13.7872C33.3142 11.9264 32.1807 10.2368 30.7506 8.8163C29.3285 7.38798 27.6367 6.25539 25.7731 5.48409C23.9094 4.71278 21.911 4.31809 19.8935 4.32286Z" fill="url(#paint0_linear_2005_9517)"/>
<path fill-rule="evenodd" clip-rule="evenodd" d="M15.2699 11.9362C14.9239 11.169 14.5598 11.1535 14.2311 11.1402L13.3461 11.1294C13.0382 11.1294 12.538 11.2447 12.1151 11.7059C11.6922 12.167 10.4992 13.2816 10.4992 15.5486C10.4992 17.8157 12.1535 20.0062 12.3841 20.314C12.6146 20.6218 15.5778 25.4223 20.2705 27.2692C24.1701 28.8041 24.9636 28.4989 25.8104 28.4222C26.6572 28.3455 28.5418 27.3076 28.9263 26.2316C29.3107 25.1556 29.311 24.2338 29.1957 24.041C29.0804 23.8483 28.7726 23.7337 28.3105 23.5031C27.8485 23.2726 25.5791 22.158 25.156 22.0041C24.7328 21.8502 24.4252 21.7737 24.1171 22.2349C23.809 22.6961 22.9253 23.7335 22.6558 24.041C22.3864 24.3485 22.1174 24.3871 21.6554 24.1568C21.1933 23.9265 19.7067 23.4397 17.9428 21.87C16.5705 20.6486 15.6441 19.1403 15.3744 18.6794C15.1047 18.2184 15.3458 17.9688 15.5773 17.7392C15.7845 17.5327 16.0389 17.2011 16.2701 16.9322C16.5014 16.6632 16.5775 16.471 16.7312 16.164C16.8849 15.8569 16.8083 15.5872 16.6928 15.3569C16.5773 15.1266 15.6803 12.8478 15.2699 11.9364" fill="white"/>
</g>
<defs>
<filter id="filter0_f_2005_9517" x="-0.554382" y="-0.601868" width="41.1086" height="41.2037" filterUnits="userSpaceOnUse" color-interpolation-filters="sRGB">
<feFlood flood-opacity="0" result="BackgroundImageFix"/>
<feBlend mode="normal" in="SourceGraphic" in2="BackgroundImageFix" result="shape"/>
<feGaussianBlur stdDeviation="1" result="effect1_foregroundBlur_2005_9517"/>
</filter>
<linearGradient id="paint0_linear_2005_9517" x1="19.5749" y1="6.16254" x2="19.73" y2="32.3605" gradientUnits="userSpaceOnUse">
<stop stop-color="#57D163"/>
<stop offset="1" stop-color="#23B33A"/>
</linearGradient>
<clipPath id="clip0_2005_9517">
<rect width="40" height="40" fill="white"/>
</clipPath>
</defs>
</svg>
