<svg width="40" height="40" viewBox="0 0 40 40" fill="none" xmlns="http://www.w3.org/2000/svg">
<path d="M20 2C9.8615 2 2 9.4295 2 19.46C2 24.707 4.151 29.243 7.652 32.375C7.9445 32.636 8.1245 33.005 8.1335 33.401L8.2325 36.605C8.23971 36.8407 8.30471 37.0711 8.4218 37.2759C8.53889 37.4806 8.70447 37.6534 8.904 37.7792C9.10353 37.905 9.3309 37.9798 9.56612 37.9971C9.80133 38.0144 10.0372 37.9737 10.253 37.8785L13.826 36.3035C14.1275 36.1685 14.4695 36.146 14.789 36.2315C16.4315 36.6815 18.1775 36.9245 20 36.9245C30.1385 36.9245 38 29.495 38 19.4645C38 9.434 30.1385 2 20 2Z" fill="url(#paint0_radial_2095_8725)"/>
<path d="M9.191 24.5675L14.4785 16.1795C14.6774 15.8637 14.9396 15.5926 15.2486 15.3832C15.5576 15.1739 15.9066 15.0309 16.2737 14.9632C16.6407 14.8955 17.0178 14.9047 17.3811 14.9901C17.7444 15.0756 18.0861 15.2354 18.3845 15.4595L22.592 18.614C22.7798 18.7546 23.0084 18.8303 23.243 18.8295C23.4776 18.8286 23.7056 18.7514 23.8925 18.6095L29.5715 14.2985C30.3275 13.7225 31.3175 14.6315 30.8135 15.437L25.5215 23.8205C25.3226 24.1363 25.0604 24.4075 24.7514 24.6168C24.4424 24.8262 24.0934 24.9692 23.7263 25.0368C23.3593 25.1045 22.9822 25.0953 22.6189 25.0099C22.2556 24.9245 21.9139 24.7646 21.6155 24.5405L17.408 21.386C17.2202 21.2454 16.9916 21.1698 16.757 21.1706C16.5224 21.1714 16.2944 21.2486 16.1075 21.3905L10.4285 25.7015C9.6725 26.2775 8.6825 25.373 9.191 24.5675Z" fill="white"/>
<defs>
<radialGradient id="paint0_radial_2095_8725" cx="0" cy="0" r="1" gradientUnits="userSpaceOnUse" gradientTransform="translate(8.03 38) scale(39.6 39.6)">
<stop stop-color="#0099FF"/>
<stop offset="0.6" stop-color="#A033FF"/>
<stop offset="0.9" stop-color="#FF5280"/>
<stop offset="1" stop-color="#FF7061"/>
</radialGradient>
</defs>
</svg>
