<svg width="40" height="40" viewBox="0 0 40 40" fill="none" xmlns="http://www.w3.org/2000/svg">
<path d="M2 22.3521C2 20.8443 2 19.3297 2 17.8219C2.02705 17.7407 2.07438 17.6596 2.0879 17.5717C2.16904 17.1322 2.21637 16.6792 2.31779 16.2465C3.30497 11.8988 5.57007 8.3558 9.11985 5.66473C11.7704 3.65656 14.7589 2.48683 18.0788 2.15551C18.5589 2.10142 19.039 2.04733 19.5123 2C19.803 2 20.1005 2 20.3913 2C20.6009 2.02705 20.8105 2.06085 21.0201 2.0879C21.7097 2.16228 22.4129 2.19608 23.0958 2.31779C27.0175 3.03451 30.3847 4.80602 33.0893 7.7405C37.2409 12.2504 38.769 17.5785 37.6398 23.5827C36.7202 28.478 34.0562 32.3185 29.9317 35.111C27.4841 36.7676 24.7727 37.7345 21.8314 38.0252C21.3311 38.0725 20.8307 38.1266 20.3304 38.174C20.0802 38.174 19.8368 38.174 19.5866 38.174C19.4244 38.1469 19.2553 38.1199 19.093 38.0928C17.9909 37.9441 16.8753 37.8765 15.8002 37.6263C12.2977 36.8149 9.31593 35.0772 6.84123 32.4605C4.49499 29.979 2.98042 27.0648 2.28398 23.7247C2.18932 23.2716 2.09466 22.8119 2 22.3521ZM36.2672 19.9856C36.2334 19.6137 36.2199 19.2418 36.159 18.8834C36.0982 18.5318 36.0103 18.1802 35.8953 17.8422C34.5971 13.8799 29.9114 12.3654 26.5915 14.8333C23.9546 16.7941 23.2514 20.5873 24.9958 23.461C26.5442 26.01 29.5463 27.0648 32.2847 26.0236C34.6512 25.1175 36.2469 22.6834 36.2672 19.9856ZM6.61134 19.1607C6.63162 19.1945 6.6519 19.2215 6.67219 19.2553C7.30777 19.1404 7.94335 19.0187 8.58569 18.9037C10.6412 18.5454 12.2707 20.1884 11.9259 22.2574C11.7027 23.5962 10.6412 24.509 9.28889 24.5698C7.75403 24.651 6.66543 23.6841 6.36116 22.4332C6.22593 21.8653 6.22593 21.8653 5.6512 21.8653C5.36046 21.8653 5.06295 21.8653 4.77221 21.8653C4.66403 21.8653 4.55584 21.8855 4.45442 21.8991C4.50851 24.0289 5.98928 25.8478 7.99744 26.294C10.2152 26.7809 12.3518 25.8275 13.312 23.9207C13.8326 22.8862 13.9408 21.7841 13.7041 20.6685C13.3728 19.1133 12.4262 18.0315 10.9454 17.3756C12.0881 16.2194 13.1903 15.1105 14.2991 14.0016C14.2856 13.9746 14.2721 13.9408 14.2518 13.9137C14.1234 13.907 13.9949 13.8935 13.8664 13.8935C12.1422 13.8935 10.4181 13.8935 8.69387 13.8935C7.67965 13.8935 6.66543 13.9002 5.6512 13.8935C5.39427 13.8935 5.27932 13.9678 5.29285 14.2451C5.30637 14.6169 5.31313 14.9888 5.29285 15.3607C5.27256 15.665 5.38074 15.7732 5.69177 15.7732C6.97646 15.7596 8.26114 15.7664 9.54582 15.7664C9.66077 15.7664 9.76895 15.7664 9.94475 15.7664C8.78854 16.9294 7.69993 18.045 6.61134 19.1607ZM21.2229 13.9814C21.2094 13.9476 21.1891 13.9137 21.1756 13.8732C20.5468 13.8732 19.9247 13.8597 19.2959 13.8867C19.1404 13.8935 18.9443 13.9881 18.8496 14.1098C17.6393 15.692 16.4358 17.281 15.239 18.8767C14.4614 19.9112 14.191 21.1012 14.3668 22.3588C14.8536 25.814 18.3425 27.1798 21.0539 25.9289C22.9133 25.0702 23.9546 23.0215 23.6097 20.9863C23.2446 18.8632 21.9532 17.5311 19.8436 17.1052C19.5731 17.0511 19.2959 17.0376 18.9511 16.997C19.7421 15.949 20.4791 14.9618 21.2229 13.9814Z" fill="#FF4369"/>
<path d="M34.4011 20.0329C34.3267 21.9193 33.5423 23.3933 31.8046 24.2047C29.9723 25.0567 27.9506 24.4278 26.7606 22.7645C25.0972 20.4318 25.9019 17.1187 28.4442 15.8678C30.2698 14.9685 32.6025 15.6785 33.6911 17.4703C34.1712 18.2478 34.4078 19.1065 34.4011 20.0329Z" fill="#FF4369"/>
<path d="M21.8179 21.7301C21.7841 23.4069 20.567 24.5834 18.9037 24.5564C17.3486 24.5293 16.1112 23.2244 16.1653 21.6354C16.2262 19.8504 17.619 18.7753 19.1945 18.8497C20.6752 18.9241 21.8517 20.1749 21.8179 21.7301Z" fill="#FF4369"/>
</svg>
