<svg width="40" height="40" viewBox="0 0 40 40" fill="none" xmlns="http://www.w3.org/2000/svg">
<path d="M20 38C29.9411 38 38 29.9411 38 20C38 10.0589 29.9411 2 20 2C10.0589 2 2 10.0589 2 20C2 29.9411 10.0589 38 20 38Z" fill="url(#paint0_linear_2309_8845)"/>
<path d="M16.7 28.25C16.1168 28.25 16.2159 28.0298 16.0148 27.4745L14.3 21.8311L27.5 14" fill="#C8DAEA"/>
<path d="M16.7 28.25C17.15 28.25 17.3488 28.0442 17.6 27.8L20 25.4663L17.0063 23.6611" fill="#A9C9DD"/>
<path d="M17.006 23.6615L24.26 29.0208C25.0878 29.4776 25.6851 29.241 25.8914 28.2524L28.8441 14.3379C29.1464 13.1259 28.3821 12.576 27.5901 12.9356L10.2516 19.6212C9.06815 20.096 9.0752 20.7563 10.0359 21.0504L14.4854 22.4393L24.7863 15.9405C25.2726 15.6456 25.719 15.804 25.3527 16.1292" fill="url(#paint1_linear_2309_8845)"/>
<defs>
<linearGradient id="paint0_linear_2309_8845" x1="26.012" y1="8.012" x2="17.012" y2="29" gradientUnits="userSpaceOnUse">
<stop stop-color="#37AEE2"/>
<stop offset="1" stop-color="#1E96C8"/>
</linearGradient>
<linearGradient id="paint1_linear_2309_8845" x1="22.2566" y1="20.0014" x2="25.0657" y2="26.4017" gradientUnits="userSpaceOnUse">
<stop stop-color="#EFF7FC"/>
<stop offset="1" stop-color="white"/>
</linearGradient>
</defs>
</svg>
