<svg width="40" height="40" viewBox="0 0 40 40" fill="none" xmlns="http://www.w3.org/2000/svg">
<g clip-path="url(#clip0_2021_8558)">
<path d="M23.6871 18.3956C23.3025 18.2605 21.0369 16.9718 20.3405 16.9406C19.5611 16.9406 18.9271 18.406 18.3971 18.8217C16.0275 18.4892 13.2941 14.862 13.1486 14.5502C13.0447 14.4047 13.1694 14.4047 13.2421 14.2904C13.8034 13.7604 14.7179 12.5444 14.2191 11.8792C14.1671 11.7649 13.1798 9.3953 13.0758 9.14586C12.7744 8.45993 12.4419 8.2105 11.8495 8.27285C9.95795 8.40796 8.50293 9.20822 8.399 12.2222C9.17848 18.1046 15.8404 22.9166 20.5276 23.0933C21.7748 23.1348 23.5208 22.4073 24.1756 20.9939C24.5393 19.7051 24.8095 18.8009 23.6871 18.3956Z" fill="#25D366"/>
<path d="M16.2874 0C7.61964 0 0.5732 7.00487 0.5732 15.5999C0.5732 18.3852 1.32149 21.1082 2.72455 23.4881L0.0223716 31.4492C-0.0295934 31.5947 0.0119786 31.761 0.115908 31.8753C0.199052 31.9584 0.302982 32 0.417305 32C0.458877 32 0.500449 31.9896 0.542021 31.9792L8.84602 29.3394C11.1221 30.5554 13.6891 31.1997 16.2874 31.1997C24.9551 31.1997 32.012 24.2053 32.012 15.5999C32.012 7.00487 24.9551 0 16.2874 0ZM16.2874 27.9571C13.845 27.9571 11.4754 27.2504 9.43842 25.9097C9.36567 25.8681 9.29292 25.837 9.20977 25.837C9.1682 25.837 9.12663 25.8474 9.08506 25.8577L4.92786 27.1777L6.26856 23.2179C6.31013 23.0932 6.28934 22.9477 6.2062 22.8438C4.65764 20.7236 3.8366 18.2189 3.8366 15.5999C3.8366 8.79247 9.42802 3.24261 16.2874 3.24261C23.1572 3.24261 28.7382 8.78207 28.7382 15.5999C28.7382 22.4177 23.1572 27.9571 16.2874 27.9571Z" fill="#25D366"/>
<path d="M31.5 23C26.7967 23 23 26.7967 23 31.5C23 36.2033 26.7967 40 31.5 40C36.2033 40 40 36.2033 40 31.5C40 26.7967 36.2033 23 31.5 23ZM31.5 37.7333C28.0433 37.7333 25.2667 34.9567 25.2667 31.5C25.2667 28.0433 28.0433 25.2667 31.5 25.2667C34.9567 25.2667 37.7333 28.0433 37.7333 31.5C37.7333 34.9567 34.9567 37.7333 31.5 37.7333ZM35.3533 29.4033C35.3533 30.3667 34.56 31.16 33.5967 31.16C32.6333 31.16 31.84 30.3667 31.84 29.4033C31.84 28.44 32.6333 27.6467 33.5967 27.6467C34.56 27.6467 35.3533 28.44 35.3533 29.4033ZM35.3533 33.5967C35.3533 34.56 34.56 35.3533 33.5967 35.3533C32.6333 35.3533 31.84 34.56 31.84 33.5967C31.84 32.6333 32.6333 31.84 33.5967 31.84C34.56 31.84 35.3533 32.6333 35.3533 33.5967ZM31.16 33.5967C31.16 34.56 30.3667 35.3533 29.4033 35.3533C28.44 35.3533 27.6467 34.56 27.6467 33.5967C27.6467 32.6333 28.44 31.84 29.4033 31.84C30.3667 31.84 31.16 32.6333 31.16 33.5967ZM31.16 29.4033C31.16 30.3667 30.3667 31.16 29.4033 31.16C28.44 31.16 27.6467 30.3667 27.6467 29.4033C27.6467 28.44 28.44 27.6467 29.4033 27.6467C30.3667 27.6467 31.16 28.44 31.16 29.4033Z" fill="#F22F46"/>
</g>
<defs>
<clipPath id="clip0_2021_8558">
<rect width="40" height="40" fill="white"/>
</clipPath>
</defs>
</svg>
