<svg width="40" height="40" viewBox="0 0 40 40" fill="none" xmlns="http://www.w3.org/2000/svg">
<path d="M31.4886 2H8.55973C4.95973 2 2 4.91141 2 8.51141V31.4403C2 35.0403 4.91141 38 8.51141 38H31.4403C35.0403 38 38 35.0886 38 31.4886V8.55973C38 4.95973 35.0886 2 31.4886 2ZM30.2443 24.9651C27.4899 28.1302 21.3409 31.9839 19.9517 32.5758C18.5503 33.1678 18.7557 32.2013 18.8161 31.8752C18.8523 31.6819 18.9973 30.7517 18.9973 30.7517C19.0456 30.4134 19.0819 29.894 18.9611 29.5678C18.8161 29.2054 18.2362 29.0121 17.8013 28.9275C11.4953 28.0819 6.83221 23.6725 6.83221 18.4174C6.83221 12.5584 12.7154 7.78658 19.9396 7.78658C27.1638 7.78658 33.047 12.5584 33.047 18.4174C33.047 20.7611 32.1409 22.8752 30.2443 24.9651Z" fill="#06C755"/>
<path d="M30.2443 24.9651C27.4899 28.1302 21.3409 31.9839 19.9517 32.5758C18.5503 33.1678 18.7557 32.2013 18.8161 31.8751C18.8523 31.6819 18.9973 30.7517 18.9973 30.7517C19.0456 30.4134 19.0819 29.8939 18.9611 29.5678C18.8161 29.2054 18.2362 29.0121 17.8013 28.9275C11.4953 28.0819 6.83221 23.6725 6.83221 18.4174C6.83221 12.5584 12.7154 7.78656 19.9396 7.78656C27.1638 7.78656 33.047 12.5584 33.047 18.4174C33.047 20.7611 32.1409 22.8752 30.2443 24.9651Z" fill="white"/>
<path d="M17.2819 15.5785H16.3638C16.2188 15.5785 16.1101 15.6872 16.1101 15.8322V21.5463C16.1101 21.6912 16.2188 21.8 16.3638 21.8H17.2819C17.4269 21.8 17.5356 21.6912 17.5356 21.5463V15.8322C17.5356 15.6993 17.4148 15.5785 17.2819 15.5785Z" fill="#06C755"/>
<path d="M23.6121 15.5785H22.694C22.549 15.5785 22.4403 15.6872 22.4403 15.8322V19.2268L19.8188 15.6872C19.8188 15.6751 19.8067 15.6751 19.7946 15.6631L19.7826 15.651L19.7705 15.6389C19.7705 15.6389 19.7705 15.6389 19.7584 15.6389L19.7463 15.6268C19.7463 15.6268 19.7463 15.6268 19.7342 15.6268C19.7342 15.6268 19.7222 15.6268 19.7222 15.6147C19.7222 15.6147 19.7222 15.6147 19.7101 15.6147C19.7101 15.6147 19.698 15.6147 19.698 15.6027C19.698 15.6027 19.698 15.6027 19.6859 15.6027H19.6738C19.6738 15.6027 19.6738 15.6027 19.6617 15.6027H19.6497H19.6376H19.6255H19.6134C19.6134 15.6027 19.6134 15.6027 19.6013 15.6027H18.6832C18.5383 15.6027 18.4295 15.7114 18.4295 15.8563V21.5704C18.4295 21.7154 18.5383 21.8241 18.6832 21.8241H19.6013C19.7463 21.8241 19.855 21.7154 19.855 21.5704V18.1758L22.4765 21.7154C22.4886 21.7396 22.5128 21.7637 22.5369 21.7758L22.549 21.7879C22.549 21.7879 22.549 21.7879 22.5611 21.7879H22.5732H22.5852C22.5852 21.7879 22.5852 21.7879 22.5973 21.7879H22.6094C22.6336 21.7879 22.6577 21.8 22.6698 21.8H23.5879C23.7329 21.8 23.8416 21.6912 23.8416 21.5463V15.8322C23.8658 15.6993 23.745 15.5785 23.6121 15.5785Z" fill="#06C755"/>
<path d="M15.0591 20.3745H12.5584V15.8443C12.5584 15.6993 12.4497 15.5906 12.3047 15.5906H11.3866C11.2416 15.5906 11.1329 15.6993 11.1329 15.8443V21.5584C11.1329 21.6308 11.1571 21.6912 11.2054 21.7396C11.2537 21.7879 11.3141 21.8121 11.3866 21.8121H15.0591C15.204 21.8121 15.3128 21.7033 15.3128 21.5584V20.6402C15.3128 20.4832 15.204 20.3745 15.0591 20.3745Z" fill="#06C755"/>
<path d="M28.6859 15.5785H25.0134C24.9409 15.5785 24.8805 15.6027 24.8322 15.651C24.7839 15.6993 24.7597 15.7597 24.7597 15.8322V21.5463C24.7597 21.6188 24.7839 21.6792 24.8322 21.7275C24.8805 21.7758 24.9409 21.8 25.0134 21.8H28.6859C28.8308 21.8 28.9396 21.6912 28.9396 21.5463V20.6282C28.9396 20.4832 28.8308 20.3745 28.6859 20.3745H26.1852V19.408H28.6859C28.8308 19.408 28.9396 19.2993 28.9396 19.1543V18.2362C28.9396 18.0912 28.8308 17.9825 28.6859 17.9825H26.1852V17.0161H28.6859C28.8308 17.0161 28.9396 16.9073 28.9396 16.7624V15.8443C28.9396 15.6993 28.8188 15.5785 28.6859 15.5785Z" fill="#06C755"/>
</svg>
