<?xml version="1.0" encoding="utf-8"?>
<!-- Generator: Adobe Illustrator 26.1.0, SVG Export Plug-In . SVG Version: 6.00 Build 0)  -->
<svg version="1.1" id="Layer_1" xmlns="http://www.w3.org/2000/svg" xmlns:xlink="http://www.w3.org/1999/xlink" x="0px" y="0px"
	 viewBox="0 0 3.2 16" style="enable-background:new 0 0 3.2 16;" xml:space="preserve">
<style type="text/css">
	.st0{fill:#FFFFFF;}
</style>
<path class="st0" d="M3.2,1.6c0,0.9-0.7,1.6-1.6,1.6C0.7,3.2,0,2.5,0,1.6C0,0.7,0.7,0,1.6,0C2.5,0,3.2,0.7,3.2,1.6z"/>
<path class="st0" d="M3.2,8c0,0.9-0.7,1.6-1.6,1.6C0.7,9.6,0,8.9,0,8c0-0.9,0.7-1.6,1.6-1.6C2.5,6.4,3.2,7.1,3.2,8z"/>
<path class="st0" d="M3.2,14.4c0,0.9-0.7,1.6-1.6,1.6C0.7,16,0,15.3,0,14.4c0-0.9,0.7-1.6,1.6-1.6C2.5,12.8,3.2,13.5,3.2,14.4z"/>
</svg>
