<svg width="40" height="40" viewBox="0 0 40 40" fill="none" xmlns="http://www.w3.org/2000/svg">
<path d="M20.0058 2C12.491 2 10.2932 2.00776 9.86599 2.0432C8.32383 2.17143 7.3642 2.41431 6.31872 2.93496C5.51304 3.33516 4.87761 3.79904 4.25049 4.44931C3.10841 5.6352 2.41623 7.09414 2.16566 8.82839C2.04384 9.67031 2.00839 9.842 2.0012 14.1424C1.99843 15.5759 2.0012 17.4625 2.0012 19.9929C2.0012 27.5037 2.0095 29.6999 2.0455 30.1264C2.17009 31.6275 2.40543 32.5718 2.9038 33.6049C3.85624 35.5823 5.67527 37.0667 7.81826 37.6206C8.56028 37.8117 9.37981 37.9169 10.4319 37.9668C10.8777 37.9861 15.4211 38 19.9674 38C24.5136 38 29.0598 37.9945 29.4945 37.9723C30.7127 37.915 31.4201 37.82 32.2023 37.6178C34.3591 37.0611 36.1449 35.5989 37.1167 33.5938C37.6054 32.5857 37.8532 31.6053 37.9654 30.1826C37.9897 29.8724 38 24.927 38 19.9882C38 15.0486 37.9889 10.1123 37.9645 9.80212C37.851 8.35647 37.6032 7.38439 37.0988 6.35691C36.6848 5.51583 36.2252 4.88771 35.558 4.24549C34.3672 3.10778 32.9108 2.41541 31.1754 2.16506C30.3345 2.04347 30.167 2.00747 25.8644 2H20.0058Z" fill="url(#paint0_radial_3505_11261)"/>
<path d="M20.0058 2C12.491 2 10.2932 2.00776 9.86599 2.0432C8.32383 2.17143 7.3642 2.41431 6.31872 2.93496C5.51304 3.33516 4.87761 3.79904 4.25049 4.44931C3.10841 5.6352 2.41623 7.09414 2.16566 8.82839C2.04384 9.67031 2.00839 9.842 2.0012 14.1424C1.99843 15.5759 2.0012 17.4625 2.0012 19.9929C2.0012 27.5037 2.0095 29.6999 2.0455 30.1264C2.17009 31.6275 2.40543 32.5718 2.9038 33.6049C3.85624 35.5823 5.67527 37.0667 7.81826 37.6206C8.56028 37.8117 9.37981 37.9169 10.4319 37.9668C10.8777 37.9861 15.4211 38 19.9674 38C24.5136 38 29.0598 37.9945 29.4945 37.9723C30.7127 37.915 31.4201 37.82 32.2023 37.6178C34.3591 37.0611 36.1449 35.5989 37.1167 33.5938C37.6054 32.5857 37.8532 31.6053 37.9654 30.1826C37.9897 29.8724 38 24.927 38 19.9882C38 15.0486 37.9889 10.1123 37.9645 9.80212C37.851 8.35647 37.6032 7.38439 37.0988 6.35691C36.6848 5.51583 36.2252 4.88771 35.558 4.24549C34.3672 3.10778 32.9108 2.41541 31.1754 2.16506C30.3345 2.04347 30.167 2.00747 25.8644 2H20.0058Z" fill="url(#paint1_radial_3505_11261)"/>
<path d="M20.0058 2C12.491 2 10.2932 2.00776 9.86599 2.0432C8.32383 2.17143 7.3642 2.41431 6.31872 2.93496C5.51304 3.33516 4.87761 3.79904 4.25049 4.44931C3.10841 5.6352 2.41623 7.09414 2.16566 8.82839C2.04384 9.67031 2.00839 9.842 2.0012 14.1424C1.99843 15.5759 2.0012 17.4625 2.0012 19.9929C2.0012 27.5037 2.0095 29.6999 2.0455 30.1264C2.17009 31.6275 2.40543 32.5718 2.9038 33.6049C3.85624 35.5823 5.67527 37.0667 7.81826 37.6206C8.56028 37.8117 9.37981 37.9169 10.4319 37.9668C10.8777 37.9861 15.4211 38 19.9674 38C24.5136 38 29.0598 37.9945 29.4945 37.9723C30.7127 37.915 31.4201 37.82 32.2023 37.6178C34.3591 37.0611 36.1449 35.5989 37.1167 33.5938C37.6054 32.5857 37.8532 31.6053 37.9654 30.1826C37.9897 29.8724 38 24.927 38 19.9882C38 15.0486 37.9889 10.1123 37.9645 9.80212C37.851 8.35647 37.6032 7.38439 37.0988 6.35691C36.6848 5.51583 36.2252 4.88771 35.558 4.24549C34.3672 3.10778 32.9108 2.41541 31.1754 2.16506C30.3345 2.04347 30.167 2.00747 25.8644 2H20.0058Z" fill="url(#paint2_radial_3505_11261)"/>
<path d="M20.0058 2C12.491 2 10.2932 2.00776 9.86599 2.0432C8.32383 2.17143 7.3642 2.41431 6.31872 2.93496C5.51304 3.33516 4.87761 3.79904 4.25049 4.44931C3.10841 5.6352 2.41623 7.09414 2.16566 8.82839C2.04384 9.67031 2.00839 9.842 2.0012 14.1424C1.99843 15.5759 2.0012 17.4625 2.0012 19.9929C2.0012 27.5037 2.0095 29.6999 2.0455 30.1264C2.17009 31.6275 2.40543 32.5718 2.9038 33.6049C3.85624 35.5823 5.67527 37.0667 7.81826 37.6206C8.56028 37.8117 9.37981 37.9169 10.4319 37.9668C10.8777 37.9861 15.4211 38 19.9674 38C24.5136 38 29.0598 37.9945 29.4945 37.9723C30.7127 37.915 31.4201 37.82 32.2023 37.6178C34.3591 37.0611 36.1449 35.5989 37.1167 33.5938C37.6054 32.5857 37.8532 31.6053 37.9654 30.1826C37.9897 29.8724 38 24.927 38 19.9882C38 15.0486 37.9889 10.1123 37.9645 9.80212C37.851 8.35647 37.6032 7.38439 37.0988 6.35691C36.6848 5.51583 36.2252 4.88771 35.558 4.24549C34.3672 3.10778 32.9108 2.41541 31.1754 2.16506C30.3345 2.04347 30.167 2.00747 25.8644 2H20.0058Z" fill="url(#paint3_radial_3505_11261)"/>
<path d="M20.0073 6.62244C16.3721 6.62244 15.9159 6.63831 14.4882 6.70324C13.0632 6.76845 12.0906 6.99387 11.2395 7.32464C10.3592 7.66626 9.61239 8.12324 8.86841 8.86695C8.12387 9.61039 7.66654 10.3566 7.32355 11.236C6.9917 12.0867 6.76583 13.0589 6.7017 14.4823C6.63784 15.909 6.62111 16.3651 6.62111 19.9976C6.62111 23.63 6.63729 24.0845 6.70197 25.5112C6.76751 26.9351 6.99311 27.907 7.32382 28.7574C7.66598 29.6371 8.1233 30.3834 8.86756 31.1268C9.61128 31.8708 10.3581 32.3289 11.2378 32.6705C12.0895 33.0013 13.0624 33.2267 14.4871 33.2919C15.9148 33.3568 16.3707 33.3727 20.0056 33.3727C23.6411 33.3727 24.0959 33.3568 25.5236 33.2919C26.9486 33.2267 27.9223 33.0013 28.7739 32.6705C29.654 32.3289 30.3997 31.8708 31.1434 31.1268C31.8879 30.3834 32.3453 29.6371 32.6882 28.7577C33.0173 27.907 33.2432 26.9348 33.3101 25.5115C33.3742 24.0848 33.391 23.63 33.391 19.9976C33.391 16.3651 33.3742 15.9092 33.3101 14.4826C33.2432 13.0587 33.0173 12.0867 32.6882 11.2363C32.3453 10.3566 31.8879 9.61038 31.1434 8.86695C30.3988 8.12295 29.6543 7.66597 28.7731 7.32463C27.9198 6.99387 26.9466 6.76845 25.5217 6.70324C24.0939 6.63831 23.6394 6.62244 20.0031 6.62244H20.0073ZM18.8065 9.03275C19.1629 9.03219 19.5606 9.03275 20.0073 9.03275C23.5811 9.03275 24.0047 9.04557 25.416 9.10965C26.721 9.16929 27.4293 9.38718 27.9011 9.57025C28.5258 9.81268 28.9711 10.1025 29.4393 10.5706C29.9078 11.0387 30.1978 11.4846 30.441 12.1087C30.6242 12.5797 30.8425 13.2874 30.9019 14.5915C30.966 16.0015 30.98 16.425 30.98 19.9945C30.98 23.564 30.966 23.9875 30.9019 25.3975C30.8422 26.7016 30.6242 27.4093 30.441 27.8803C30.1984 28.5044 29.9078 28.9489 29.4393 29.4167C28.9708 29.8849 28.526 30.1746 27.9011 30.4171C27.4299 30.601 26.721 30.8183 25.416 30.878C24.005 30.942 23.5811 30.956 20.0073 30.956C16.4332 30.956 16.0096 30.942 14.5986 30.878C13.2936 30.8178 12.5853 30.5999 12.1132 30.4168C11.4885 30.1744 11.0424 29.8846 10.5739 29.4164C10.1054 28.9483 9.81541 28.5036 9.57223 27.8791C9.38902 27.4082 9.17068 26.7004 9.11129 25.3964C9.04715 23.9864 9.03432 23.5629 9.03432 19.9912C9.03432 16.4194 9.04715 15.9981 9.11129 14.5882C9.17097 13.2841 9.38902 12.5763 9.57223 12.1048C9.81483 11.4807 10.1054 11.0348 10.5739 10.5667C11.0424 10.0986 11.4885 9.80879 12.1132 9.56581C12.585 9.38189 13.2936 9.16456 14.5986 9.10463C15.8334 9.0489 16.3119 9.03219 18.8065 9.02939L18.8065 9.03275ZM27.1521 11.2536C26.2654 11.2536 25.5459 11.9717 25.5459 12.858C25.5459 13.7441 26.2654 14.4631 27.1521 14.4631C28.0389 14.4631 28.7583 13.7441 28.7583 12.858C28.7583 11.9719 28.0389 11.253 27.1521 11.253L27.1521 11.2536ZM20.0073 13.1289C16.2112 13.1289 13.1335 16.2043 13.1335 19.9976C13.1335 23.7908 16.2112 26.8649 20.0073 26.8649C23.8033 26.8649 26.88 23.7908 26.88 19.9976C26.88 16.2043 23.8031 13.1289 20.007 13.1289H20.0073ZM20.0073 15.5392C22.4713 15.5392 24.469 17.5352 24.469 19.9976C24.469 22.4597 22.4713 24.4559 20.0073 24.4559C17.543 24.4559 15.5456 22.4597 15.5456 19.9976C15.5456 17.5352 17.543 15.5392 20.0073 15.5392Z" fill="white"/>
<defs>
<radialGradient id="paint0_radial_3505_11261" cx="0" cy="0" r="1" gradientUnits="userSpaceOnUse" gradientTransform="translate(36.8375 18.8736) rotate(164.25) scale(23.002 16.5718)">
<stop stop-color="#FF005F"/>
<stop offset="1" stop-color="#FC01D8"/>
</radialGradient>
<radialGradient id="paint1_radial_3505_11261" cx="0" cy="0" r="1" gradientUnits="userSpaceOnUse" gradientTransform="translate(11.5622 40.7727) rotate(-90) scale(28.7359 30.4882)">
<stop stop-color="#FFCC00"/>
<stop offset="0.1242" stop-color="#FFCC00"/>
<stop offset="0.5672" stop-color="#FE4A05"/>
<stop offset="0.6942" stop-color="#FF0F3F"/>
<stop offset="1" stop-color="#FE0657" stop-opacity="0"/>
</radialGradient>
<radialGradient id="paint2_radial_3505_11261" cx="0" cy="0" r="1" gradientUnits="userSpaceOnUse" gradientTransform="translate(20.9097 37.4923) rotate(-59.8703) scale(11.8825 15.4697)">
<stop stop-color="#FFCC00"/>
<stop offset="1" stop-color="#FFCC00" stop-opacity="0"/>
</radialGradient>
<radialGradient id="paint3_radial_3505_11261" cx="0" cy="0" r="1" gradientUnits="userSpaceOnUse" gradientTransform="translate(6.8844 3.46591) rotate(164.274) scale(22.7468 7.74982)">
<stop stop-color="#780CFF"/>
<stop offset="1" stop-color="#820BFF" stop-opacity="0"/>
</radialGradient>
</defs>
</svg>
